<svg xmlns="http://www.w3.org/2000/svg" viewBox="0 0 48 48">
  <path fill="#EA4335" d="M24 9.5c3.54 0 6.72 1.22 9.24 3.6l6.9-6.9C35.9 2.5 30.25 0 24 0 14.62 0 6.51 5.38 2.56 13.22l7.99 6.21C12.81 13.73 17.96 9.5 24 9.5z"/>
  <path fill="#4285F4" d="M46.5 24.5c0-1.78-.16-3.5-.46-5.17H24v9.79h12.7c-.55 2.98-2.22 5.51-4.75 7.21l7.43 5.77C44.3 37.1 46.5 31.27 46.5 24.5z"/>
  <path fill="#FBBC05" d="M10.55 28.44a14.5 14.5 0 010-8.88l-7.99-6.21C.92 17.28 0 20.55 0 24s.92 6.72 2.56 10.65l7.99-6.21z"/>
  <path fill="#34A853" d="M24 48c6.48 0 11.94-2.13 15.92-5.7l-7.43-5.77c-2.08 1.41-4.74 2.24-8.49 2.24-6.04 0-11.19-4.22-13.45-9.97l-7.99 6.21C6.51 42.62 14.62 48 24 48z"/>
  <path fill="none" d="M0 0h48v48H0z"/>
</svg>
