<svg xmlns="http://www.w3.org/2000/svg" viewBox="0 0 48 48">
  <path fill="#391B1B" d="M24 44c-1.4 0-2.53-1.05-2.66-2.41l-.25-2.35C12.6 38.09 6 31.76 6 24 6 14.61 14.75 7 26 7s20 7.61 20 17c0 8.19-6.55 14.97-16.03 16.35l-.24 2.21C29.58 42.95 28.41 44 27 44h-3z"/>
  <path fill="#FEE500" d="M41 24c0 8.28-7.61 15-17 15-1.27 0-2.51-.13-3.69-.38L19.9 41.7c-.11 1.04-.96 1.85-2 1.85H17c-1.1 0-2-.9-2-2v-3.53C9.53 34.8 7 29.77 7 24 7 15.72 14.61 9 24 9s17 6.72 17 15z"/>
  <path fill="#391B1B" d="M19.5 18.92h-1.93l-1.76 5.61h1.7l.27-.93h1.47l.27.93h1.74l-1.76-5.61zm-.49 3.49h-.87l.43-1.55.44 1.55zM24.64 18.92h-2.5v5.61h1.61v-1.69h.87c1.26 0 2.22-.85 2.22-1.96s-.96-1.96-2.2-1.96zm-.09 2.63h-.8V20.4h.8c.34 0 .6.23.6.57s-.26.58-.6.58zM30.26 20.46c0-.91-.74-1.54-1.87-1.54h-2.33v5.61h1.6v-1.56h.28l.79 1.56h1.78l-1.04-1.91c.47-.27.79-.76.79-1.16zm-1.69.26c0 .18-.19.35-.44.35h-.95v-.69h.95c.25 0 .44.16.44.34zM35.67 20.46c0-.91-.74-1.54-1.87-1.54h-2.33v5.61h1.6v-1.56h.28l.79 1.56h1.78l-1.04-1.91c.47-.27.79-.76.79-1.16zm-1.69.26c0 .18-.19.35-.44.35h-.95v-.69h.95c.25 0 .44.16.44.34z"/>
</svg>
